<?xml version="1.0" encoding="UTF-8"?>
<!DOCTYPE svg PUBLIC "-//W3C//DTD SVG 1.1//EN" "http://www.w3.org/Graphics/SVG/1.1/DTD/svg11.dtd">
<svg version="1.1" xmlns="http://www.w3.org/2000/svg" xmlns:xlink="http://www.w3.org/1999/xlink" x="0" y="0" width="456" height="602" viewBox="0, 0, 456, 602">
  <defs>
    <clipPath id="Clip_1">
      <path d="M-0,602 L455.596,602 L455.596,0.354 L-0,0.354 z"/>
    </clipPath>
  </defs>
  <g id="Layer_1">
    <g clip-path="url(#Clip_1)">
      <path d="M112.552,596.662 C111.886,602.386 107.673,602.352 103.638,601.718 C99.59,601.081 99.271,597.702 99.559,594.375 C104.01,542.958 110.49,491.826 121.085,441.273 C121.221,440.622 121.214,439.936 121.393,439.3 C123.616,431.409 124.477,424.176 119.654,416.23 C115.016,408.59 115.242,399.257 117.567,390.463 C118.224,387.979 117.931,386.569 115.871,385.018 C92.275,367.248 76.568,343.764 66.636,316.23 C65.466,312.985 64.193,311.765 60.523,311.485 C45.133,310.31 34.895,301.389 32.158,286.011 C29.794,272.727 29.423,259.352 39.373,248.262 C40.811,246.66 40.056,246.235 38.85,245.309 C21.387,231.908 17.713,213.089 18.681,192.704 C19.273,180.26 22.659,168.479 29.664,157.599 C26.211,156.024 22.906,154.682 19.75,153.051 C-0.09,142.799 -5.588,123.513 6.021,104.373 C15.42,88.875 29.545,78.819 45.506,71.042 C55.404,66.218 65.77,62.633 76.52,60.302 C79.735,59.604 82.308,58.304 84.85,56.25 C116.906,30.344 152.514,11.405 193.334,4.065 C238.985,-4.143 283.467,1.506 326.468,18.622 C365.147,34.018 398.178,57.158 422.865,91.121 C441.138,116.261 452.242,144.447 454.872,175.432 C456.974,200.193 454.807,224.671 444.325,247.743 C443.4,249.779 443.689,251.223 444.623,253.211 C451.655,268.175 451.832,283.414 443.604,297.722 C436.555,309.978 424.361,312.826 411.109,311.247 C407.648,310.834 406.334,311.349 405.151,314.759 C395.259,343.27 379.018,367.349 354.673,385.578 C352.829,386.959 352.279,388.027 352.885,390.454 C355.53,401.055 354.114,411.284 348.91,420.885 C347.793,422.945 347.569,424.711 348.107,426.982 C361.147,482.031 367.879,537.95 370.998,594.359 C371.179,597.631 370.911,601.09 366.836,601.721 C362.792,602.347 358.594,602.373 357.887,596.677 C356.716,594.464 355.868,592.221 355.771,589.619 C354.34,551.522 349.725,513.772 343.304,476.221 C341.397,465.074 339.201,453.983 336.853,442.922 C335.79,437.916 335.058,437.446 330.563,439.822 C318.097,446.411 305.06,451.169 290.994,452.843 C287.366,453.274 283.724,453.821 280.163,452.405 C276.928,448.522 276.64,444.042 277.527,439.328 C281.128,436.06 285.789,437.369 289.891,436.882 C302.906,435.337 314.712,430.683 325.949,424.313 C334.422,419.51 338.695,411.894 339.712,402.368 C340.161,398.166 339.074,397.311 335.351,399.31 C316.331,409.522 295.908,415.262 274.717,418.573 C271.395,419.092 269.396,420.719 268.11,423.808 C265.731,429.52 262.496,434.756 258.569,439.562 C247.071,453.629 229.134,454.645 216.077,442.096 C210.727,436.953 206.189,431.253 203.163,424.494 C201.396,420.547 198.584,418.803 194.413,418.157 C173.201,414.868 152.891,408.691 133.952,398.436 C130.856,396.76 130.478,398.192 130.629,400.672 C131.246,410.807 135.387,418.975 144.329,424.219 C157.453,431.916 171.55,436.606 186.819,437.516 C188.924,437.641 191.224,437.18 192.847,439.158 C193.981,443.883 193.435,448.304 190.486,452.294 C183.813,454.599 177.256,452.655 170.805,451.366 C160.466,449.3 150.685,445.509 141.357,440.526 C136.901,438.145 136.556,438.409 135.527,443.334 C127.483,481.855 121.628,520.713 117.587,559.85 C116.51,570.279 115.105,580.679 114.651,591.163 C114.559,593.296 113.569,594.952 112.552,596.662" fill="#6E4100"/>
    </g>
    <path d="M112.552,596.662 C116.9,542.803 124.056,489.349 135.521,435.967 C152.767,445.577 170.557,452.108 190.249,451.866 C192.02,453.706 191.413,455.892 191.097,458.005 C188.785,473.469 186.5,488.936 184.359,504.424 C183.875,507.931 183.244,511.247 179.36,512.972 C176.955,514.04 176.18,516.624 177.105,518.971 C178.893,523.507 177.471,527.426 175.556,531.401 C174.761,533.052 174.147,534.787 173.921,536.621 C173.588,539.33 174.102,541.766 177.029,542.658 C179.902,543.534 181.843,541.902 183.11,539.517 C184.435,537.021 185.569,534.414 186.561,531.772 C187.728,528.665 189.586,526.45 192.597,524.849 C196.914,522.552 197.472,520.688 195.076,516.365 C193.284,513.128 193.737,509.924 194.2,506.659 C197.14,485.91 200.276,465.189 203.39,444.465 C203.713,442.318 203.995,440.176 203.666,438.011 C203.34,435.873 202.334,434.222 200.098,433.7 C198.082,433.229 196.557,434.128 195.324,435.675 C194.409,436.824 193.851,438.333 192.243,438.8 C174.366,439.38 158.116,433.883 142.978,424.97 C133.246,419.241 129.199,410.032 129.334,398.888 C129.369,396.011 129.722,394.47 133.282,396.468 C152.789,407.419 173.825,413.889 195.919,416.969 C199.723,417.499 201.986,419.027 203.641,422.67 C206.888,429.82 211.389,436.231 217.294,441.546 C230.454,453.389 246.782,452.076 257.932,438.299 C262.158,433.076 265.341,427.252 267.851,421.064 C268.666,419.056 269.541,417.902 271.975,417.557 C295.026,414.295 317.157,408.032 337.624,396.648 C340.549,395.02 341.066,396.308 341.104,398.878 C341.27,410.04 337.202,419.241 327.486,424.964 C312.352,433.876 296.1,439.383 278.221,438.8 C276.435,438.263 275.922,436.488 274.82,435.287 C273.603,433.962 272.154,433.28 270.359,433.697 C268.346,434.166 267.286,435.599 266.887,437.532 C266.442,439.683 266.676,441.838 266.997,443.989 C270.067,464.567 273.218,485.132 276.148,505.731 C276.742,509.907 277.144,513.881 274.671,517.766 C273.155,520.147 273.656,523.086 276.423,524.127 C281.609,526.077 283.431,530.364 285.263,534.883 C286.071,536.877 286.728,538.981 288.111,540.692 C289.6,542.535 291.481,543.462 293.83,542.516 C295.96,541.658 296.69,539.853 296.639,537.681 C296.573,534.943 295.487,532.494 294.333,530.092 C292.697,526.686 291.845,523.327 293.251,519.524 C294.372,516.494 293.311,513.862 290.304,512.437 C287.686,511.196 286.846,508.973 286.466,506.428 C283.986,489.801 281.683,473.147 279.15,456.527 C278.899,454.882 278.821,453.181 280.215,451.866 C299.218,452.065 316.516,446.121 332.864,437.004 C335.979,435.266 336.781,435.574 337.572,439.158 C344.67,471.326 349.785,503.799 353.3,536.544 C355.446,556.545 356.969,576.589 357.888,596.679 C355.986,595.85 353.974,596.059 351.988,596.059 C274.144,596.056 196.3,596.056 118.456,596.058 C116.469,596.058 114.46,595.872 112.552,596.662" fill="#87C9D5"/>
    <path d="M391.942,312.886 C378.506,349.625 354.466,377.129 318.027,391.483 C263.359,413.019 207.781,413.125 153.052,391.509 C119.108,378.103 95.891,352.837 81.772,319.237 C81.457,318.485 81.334,317.652 81.121,316.857 C83.497,315.881 85.215,317.619 87.166,318.348 C95.179,321.347 103.251,323.48 111.961,321.698 C129.442,318.123 142.417,297.777 137.788,280.625 C135.684,272.829 131.969,265.794 126.1,260.066 C115.62,249.84 99.287,248.558 87.126,256.82 C81.649,260.541 77.272,265.138 74.006,270.897 C73.116,272.466 72.794,274.844 70.197,274.889 C67.208,258.397 66.864,241.827 69.253,225.262 C73.474,196.003 82.038,168.228 98.158,143.135 C114.613,117.52 136.871,98.667 165.006,85.73 C166.704,98.014 169.535,109.686 174.179,120.866 C181.072,137.462 189.903,152.776 203.302,165.073 C206.498,168.006 209.987,170.566 213.85,172.578 C228.671,180.298 242.72,176.77 252.194,162.937 C256.053,157.302 258.961,151.218 260.687,143.865 C268.09,152.941 275.871,160.834 285.066,167.195 C293.447,172.994 302.184,178.129 312.242,180.437 C328.724,184.22 341.625,175.726 344.56,159.232 C346.705,159.186 347.57,161.095 348.87,162.202 C360.605,172.2 373.24,180.239 389.269,180.815 C391.934,180.91 392.005,182.725 392.556,184.392 C401.754,212.233 406.019,240.621 402.032,269.923 C399.703,272.392 398.885,269.723 398.135,268.522 C391.94,258.599 382.491,254.143 371.47,251.902 C359.333,249.435 349.381,253.3 341.45,262.243 C326.175,279.468 329.32,303.619 348.275,316.97 C359.143,324.625 373.822,323.904 385.473,315.226 C387.35,313.828 388.962,311.367 391.942,312.886" fill="#FEF8EA"/>
    <path d="M75.371,74.815 C79.833,72.167 84.935,71.868 89.849,70.892 C92.78,70.309 95.753,69.914 98.66,69.236 C102.902,68.246 105.086,65.46 103.975,61.179 C103.383,58.899 103.994,57.933 105.671,56.746 C134.713,36.175 166.12,20.632 201.664,15.969 C265.795,7.555 324.224,22.635 375.986,61.749 C411.371,88.489 433.449,123.795 440.795,167.643 C444.843,191.804 442.815,215.741 434.029,238.872 C432.965,241.672 431.867,243.536 428.279,242.263 C426.489,241.629 424.183,241.551 422.359,242.08 C417.113,243.601 416.27,241.581 416.123,236.641 C415.582,218.405 411.319,200.789 405.99,183.423 C405.018,180.257 403.692,177.531 407.394,174.838 C409.75,173.124 409.272,169.947 407.76,167.499 C406.025,164.689 402.865,163.785 400.292,165.049 C387.594,171.29 376.822,166.077 366.681,159.317 C354.181,150.984 343.772,140.551 338.404,126.001 C336.996,122.185 334.339,120.324 330.266,121.523 C326.256,122.703 324.667,126.165 326.309,130.747 C329.01,138.282 331.675,145.735 331.525,153.944 C331.316,165.397 325.028,170.565 313.975,167.28 C298.876,162.793 286.755,153.506 276.344,141.974 C268.86,133.684 263.147,124.354 262.46,112.801 C262.191,108.276 259.93,105.804 255.628,106.017 C251.177,106.237 249.478,109.587 249.378,113.654 C249.238,119.312 249.407,124.977 249.284,130.636 C249.089,139.667 246.626,148.006 241.409,155.471 C235.364,164.122 228.776,165.844 219.575,160.649 C208.933,154.64 201.772,145.182 195.799,134.886 C184.709,115.767 176.953,95.608 178.092,72.939 C178.26,69.587 176.715,67.05 173.425,66.085 C169.931,65.061 167.043,66.293 165.574,69.629 C164.801,71.384 163.598,72.125 162.047,72.799 C113.476,93.895 82.878,130.985 66.186,180.477 C60.745,196.611 57.793,213.288 55.076,230.025 C52.364,230.098 50.993,228.016 49.43,226.375 C37.516,213.862 31.007,182.971 40.239,166.854 C40.299,163.001 43.599,161.718 46.06,160.05 C48.682,158.274 50.994,156.512 50.872,153.115 C50.745,149.61 48.189,148.064 45.235,147.024 C43.804,144.701 41.559,143.207 39.534,141.507 C27.481,131.388 25.542,118.946 34.314,105.625 C43.276,92.013 55.782,82.658 70.669,76.329 C72.263,75.912 73.707,75.022 75.371,74.815" fill="#C9A76F"/>
    <path d="M391.942,312.886 C388.268,313.188 386.54,316.542 383.684,318.167 C364.17,329.267 344.468,322.922 334.394,302.182 C323.775,280.32 335.63,255.559 359.384,250.381 C369.591,248.157 390.663,252.921 399.126,267.672 C399.722,268.71 399.64,271.043 402.032,269.922 C400.434,284.658 397.252,299.022 391.942,312.886" fill="#FFD9B4"/>
    <path d="M70.197,274.889 C74.069,268.125 78.111,261.635 84.647,256.855 C96.23,248.384 112.266,246.994 123.128,256.038 C146.144,275.204 147.615,304.026 118.734,320.816 C108.577,326.72 97.423,323.752 86.958,319.683 C84.949,318.902 83.063,317.807 81.121,316.857 C75.194,303.462 71.734,289.426 70.197,274.889" fill="#FFD9B4"/>
    <path d="M280.215,451.866 C282.07,465.165 283.911,478.465 285.786,491.761 C286.526,497.015 287.412,502.25 288.083,507.512 C288.315,509.328 288.767,510.274 290.773,510.977 C295.28,512.557 297.023,516.59 294.601,520.462 C293.054,522.935 293.526,524.719 294.438,526.878 C295.665,529.786 297.157,532.616 298.048,535.624 C299.14,539.311 298.523,542.744 294.348,544.193 C290.331,545.587 287.617,543.735 285.961,540.074 C284.797,537.502 283.552,534.952 282.617,532.295 C281.532,529.214 280.24,526.932 276.568,525.954 C272.286,524.813 270.598,520.137 273.368,516.865 C276.102,513.635 275.432,510.416 274.949,507.123 C271.822,485.793 268.554,464.483 265.337,443.165 C265.262,442.673 265.253,442.171 265.2,441.675 C264.758,437.542 264.55,433.42 269.646,431.927 C273.635,430.759 276.042,432.805 278.221,438.801 C278.37,443.234 279.027,447.591 280.215,451.866" fill="#FEFEFE"/>
    <path d="M192.243,438.8 C192.487,438.182 192.788,437.579 192.965,436.943 C194.011,433.176 196.463,431.201 200.345,431.873 C204.3,432.558 205.883,435.417 205.39,439.22 C204.277,447.786 202.997,456.331 201.765,464.881 C199.586,480.005 197.406,495.129 195.186,510.247 C194.861,512.462 195.127,514.161 196.686,516.121 C199.764,519.99 198.402,524.635 193.637,526.033 C190.401,526.982 189.116,528.844 188.101,531.628 C187.021,534.592 185.702,537.476 184.356,540.334 C182.739,543.767 180.064,545.485 176.264,544.262 C172.047,542.904 171.421,539.545 172.336,535.778 C172.803,533.858 173.714,532.033 174.532,530.213 C176.137,526.641 177.821,523.504 175.445,519.158 C173.618,515.815 175.496,512.23 179.564,510.955 C181.189,510.446 182.06,509.962 182.316,508.102 C184.9,489.348 187.589,470.609 190.249,451.866 C191.411,447.587 192.107,443.236 192.243,438.8" fill="#FEFEFE"/>
    <path d="M71.236,76.854 C58.505,83.305 46.734,90.995 37.984,102.591 C35.67,105.657 33.626,108.87 32.221,112.472 C28.028,123.228 30.534,132.229 39.228,139.771 C41.522,141.76 45.873,142.471 45.234,147.024 C36.333,146.156 27.95,143.797 20.763,138.219 C13.144,132.307 11.116,124.541 14.876,115.674 C18.476,107.185 24.649,100.691 31.692,95.046 C43.083,85.913 55.951,79.585 70.042,75.752 C71.187,75.31 71.409,75.868 71.236,76.854" fill="#FEFEFE"/>
    <path d="M436.364,274.39 C436.369,277.893 436.098,281.359 435.225,284.772 C432.676,294.736 423.151,300.605 412.998,298.579 C410.84,298.148 410.435,297.402 410.943,295.251 C413.738,283.419 415.353,271.401 416.178,259.275 C416.256,258.131 416.194,257.108 417.466,256.325 C423.283,252.748 431.634,255.343 434.338,261.687 C436.071,265.75 436.365,270.048 436.364,274.39" fill="#FEF8EA"/>
    <path d="M40.239,166.854 C39.022,174.158 36.734,181.31 37.378,188.871 C38.714,204.564 42.308,219.259 55.076,230.025 C55.158,232.281 56.199,235.32 54.187,236.484 C51.863,237.828 48.993,236.353 46.764,234.816 C38.75,229.292 34.977,221.166 32.957,211.985 C29.816,197.706 31.555,183.937 37.316,170.613 C37.937,169.176 38.334,167.374 40.239,166.854" fill="#FDFDFD"/>
    <path d="M53.912,255.193 C55.405,255.097 55.075,256.581 55.119,257.623 C55.665,270.461 57.608,283.107 60.445,295.615 C61.05,298.283 60.102,298.411 57.99,297.948 C52.557,296.756 48.497,293.685 46.461,288.592 C43.004,279.943 43.117,271.014 45.774,262.184 C46.881,258.505 49.412,255.867 53.912,255.193" fill="#FEF8EA"/>
    <path d="M216.371,419.565 C229.628,419.944 241.56,420.125 254.312,419.454 C250.006,427.376 246.424,435.89 236.967,436.331 C226.558,436.816 222.281,427.695 216.371,419.565" fill="#FEF7E9"/>
    <path d="M71.236,76.854 C70.838,76.487 70.44,76.119 70.042,75.752 C71.724,74.906 73.309,73.505 75.371,74.815 C74.337,76.192 72.844,76.639 71.236,76.854" fill="#EFE9E1"/>
    <path d="M242.887,361.852 C224.847,361.791 214.442,354.84 206.2,343.903 C197.545,332.418 192.447,319.364 189.028,305.527 C188.526,303.496 188.781,300.89 185.577,300.183 C182.242,299.447 181.016,296.867 182.094,293.662 C183.137,290.564 185.644,290.053 188.595,290.746 C205.538,294.722 222.78,295.899 240.097,295.605 C253.556,295.376 267.015,294.56 280.308,292.114 C286.749,290.929 288.965,292.687 288.19,299.081 C286.191,315.578 282.288,331.526 272.016,345.077 C263.804,355.911 252.784,361.684 242.887,361.852" fill="#6E4100"/>
    <path d="M178.777,237.011 C178.825,241.977 177.843,246.643 174.308,250.356 C170.033,254.846 164.781,256.349 158.856,254.417 C152.747,252.424 147.361,244.636 147.279,237.719 C147.192,230.342 150.062,224.07 155.475,219.147 C161.212,213.931 168.483,214.679 173.39,220.791 C177.176,225.508 178.796,231 178.777,237.011" fill="#6E4100"/>
    <path d="M327.417,237.277 C327.467,242.831 326.105,247.885 321.715,251.579 C317.488,255.136 312.53,256.391 307.311,254.254 C300.771,251.576 297.048,246.271 296.206,239.432 C295.18,231.092 298.424,224.101 304.764,218.688 C309.764,214.419 315.695,214.695 320.466,219.23 C325.618,224.127 327.386,230.38 327.417,237.277" fill="#6E4100"/>
    <path d="M173.681,131.949 C173.394,133.929 172.741,135.31 171.002,136.094 C169.056,136.972 167.491,136.445 165.97,135.199 C158.779,129.31 154.918,129.824 149.177,137.501 C147.587,139.629 145.652,140.615 143.183,139.354 C140.988,138.232 140.099,136.168 141.014,133.882 C143.898,126.678 149.975,123.47 157.068,122.068 C163.191,120.858 170.15,124.321 172.788,129.386 C173.238,130.251 173.441,131.243 173.681,131.949" fill="#6F4300"/>
    <path d="M243.402,241.185 C243.332,243.791 241.78,245.627 238.642,245.832 C235.559,246.034 231.329,240.72 231.262,236.601 C231.209,233.4 233.076,231.718 236.066,231.43 C239.224,231.125 243.279,236.38 243.402,241.185" fill="#6F4401"/>
    <path d="M239.19,351.907 C232.341,351.584 226.208,349.783 221.167,345.228 C209.347,334.551 203.641,320.48 199.378,305.628 C198.787,303.57 199.468,303.047 201.598,303.336 C225.962,306.643 250.328,306.329 274.667,303.056 C277.072,302.733 277.635,303.536 277.168,305.695 C274.451,318.26 271.203,330.61 262.563,340.687 C256.386,347.892 248.531,351.652 239.19,351.907" fill="#FEFEFE"/>
  </g>
</svg>
