<?xml version="1.0" encoding="UTF-8"?>
<!DOCTYPE svg PUBLIC "-//W3C//DTD SVG 1.1//EN" "http://www.w3.org/Graphics/SVG/1.1/DTD/svg11.dtd">
<svg version="1.1" xmlns="http://www.w3.org/2000/svg" xmlns:xlink="http://www.w3.org/1999/xlink" x="0" y="0" width="541" height="672" viewBox="0, 0, 541, 672">
  <defs>
    <clipPath id="Clip_1">
      <path d="M-0,0.307 L540.513,0.307 L540.513,671.94 L-0,671.94 z"/>
    </clipPath>
  </defs>
  <g id="Layer_1">
    <g clip-path="url(#Clip_1)">
      <path d="M160.845,665.906 C160.003,670.111 157.591,672.481 153.16,671.902 C149.305,671.398 147.484,668.035 147.914,663.11 C148.694,654.157 149.263,645.183 150.208,636.248 C150.557,632.951 150.227,631.995 146.47,632.59 C137.901,633.948 129.252,634.061 120.647,632.311 C96.738,627.45 86.602,613.439 88.92,589.133 C91.169,565.556 98.226,543.257 106.258,521.199 C107.496,517.8 107.297,515.232 105.632,511.929 C97.657,496.112 99.549,479.987 105.096,463.944 C107.715,456.369 111.337,449.227 115.922,442.673 C117.654,440.197 117.269,438.843 115.47,436.784 C108.001,428.233 101.659,418.883 96.315,408.857 C95.488,407.306 94.834,405.952 92.333,405.934 C68.808,405.762 58.472,396.947 54.876,373.687 C53.439,364.394 53.311,355.013 59.384,346.897 C60.547,345.343 59.62,345.056 58.631,344.484 C32.649,329.446 28.407,304.998 30.064,278.106 C30.412,272.465 31.778,266.927 34.182,261.751 C35.265,259.42 34.693,258.507 32.184,258.2 C28.035,257.693 24.069,256.388 20.268,254.681 C2.945,246.904 -4.002,231.052 2.274,213.089 C7.785,197.315 18.428,185.348 31.385,175.26 C42.08,166.932 53.796,160.331 66.4,155.37 C69.132,154.294 71.211,152.749 73.168,150.586 C106.498,113.744 145.537,85.52 194.856,74.913 C268.257,59.126 336.884,70.763 397.035,117.168 C438.562,149.205 460.847,192.634 462.908,245.592 C463.382,257.761 461.992,269.864 458.919,281.7 C458.378,283.785 458.538,285.268 459.923,287.14 C468.568,298.823 470.604,312.213 467.861,326.02 C464.904,340.909 452.614,349.743 435.877,349.982 C432.505,350.03 431.482,350.969 430.925,354.136 C424.973,387.986 410.099,417.055 384.246,440.102 C382.428,441.723 382.562,442.619 383.897,444.482 C394.276,458.963 395.245,474.29 387.174,490.051 C385.767,492.799 386.105,495.076 386.711,497.634 C399.674,552.379 406.198,607.999 409.32,664.081 C409.542,668.063 407.953,671.123 403.886,671.856 C399.463,672.653 397.081,670.074 396.182,665.921 C395.011,663.709 394.163,661.465 394.066,658.863 C392.635,620.765 388.02,583.013 381.598,545.462 C379.692,534.314 377.495,523.223 375.147,512.162 C374.085,507.158 373.353,506.689 368.854,509.067 C356.388,515.656 343.351,520.414 329.284,522.087 C325.656,522.519 322.014,523.065 318.453,521.647 C315.227,517.755 314.923,513.276 315.83,508.556 C319.442,505.314 324.098,506.607 328.203,506.121 C341.046,504.601 352.752,500.089 363.822,493.79 C376.631,486.501 381.391,471.777 375.608,458.467 C373.122,452.744 371.382,452.177 366.3,455.489 C351.123,465.379 334.735,472.69 317.441,477.893 C312.939,479.247 310.45,481.61 309.094,485.988 C306.664,493.834 302.891,501.028 297.838,507.567 C285.83,523.106 267.704,524.372 253.714,510.694 C248.894,505.981 244.863,500.754 241.906,494.719 C240.631,492.116 238.948,490.494 235.826,490.406 C218.467,489.919 201.345,487.728 184.601,482.966 C183.966,482.786 183.319,482.634 182.284,483.086 C183.007,489.661 184.045,495.386 191.786,498.442 C202.74,502.765 213.776,506.029 225.534,506.764 C227.49,506.886 229.592,506.556 231.101,508.328 C232.385,512.989 231.572,517.312 229.023,521.36 C222.388,523.92 215.84,521.809 209.4,520.607 C201.38,519.109 193.576,516.598 186.25,512.898 C183.207,511.362 181.386,511.466 179.508,514.884 C168.753,534.457 148.94,541.342 127.94,533.089 C126.699,532.602 125.498,532.028 124.293,531.461 C118.809,528.877 118.556,528.952 116.621,534.737 C110.646,552.598 105.52,570.623 103.469,589.477 C101.351,608.931 108.567,616.075 126.971,618.44 C138.771,619.957 150.58,618.36 161.883,614.234 C164.471,613.289 166.981,612.774 169.621,613.989 C172.27,615.21 173.851,617.263 174.16,620.106 C174.52,623.43 173.023,626.231 170.125,627.516 C165.973,629.356 164.976,632.3 164.67,636.542 C164.11,644.328 163.361,652.108 162.934,659.906 C162.809,662.188 162.022,664.074 160.845,665.906" fill="#6E4100"/>
      <path d="M160.845,665.906 C161.732,654.812 162.72,643.723 163.434,632.618 C163.608,629.903 164.381,628.537 167.077,627.615 C172.27,625.837 173.974,622.697 172.578,618.709 C171.246,614.909 167.633,613.711 162.556,615.416 C149.117,619.928 135.434,622.271 121.366,619.092 C106.138,615.65 100.486,607.781 101.765,591.736 C103.485,570.174 110.014,549.75 116.983,529.441 C118.064,526.291 119.39,527.281 121.319,528.406 C130.189,533.584 139.789,536.172 150.008,534.773 C163.787,532.885 173.538,525.164 179.051,512.458 C180.417,509.31 181.422,509.067 184.339,510.522 C198.23,517.452 212.946,521.181 228.543,521.11 C230.314,522.95 229.707,525.137 229.391,527.249 C227.079,542.713 224.794,558.181 222.653,573.67 C222.169,577.176 221.538,580.492 217.654,582.216 C215.248,583.284 214.474,585.869 215.399,588.216 C217.188,592.752 215.764,596.671 213.85,600.646 C213.055,602.297 212.441,604.032 212.215,605.866 C211.882,608.576 212.397,611.012 215.324,611.903 C218.197,612.778 220.138,611.147 221.404,608.761 C222.73,606.266 223.863,603.658 224.856,601.017 C226.023,597.909 227.881,595.695 230.892,594.093 C235.21,591.797 235.767,589.932 233.372,585.609 C231.579,582.373 232.032,579.168 232.495,575.903 C235.435,555.154 238.571,534.433 241.686,513.708 C242.008,511.562 242.29,509.419 241.96,507.254 C241.635,505.116 240.628,503.465 238.392,502.943 C236.376,502.473 234.852,503.371 233.618,504.919 C232.703,506.067 232.146,507.577 230.538,508.044 C214.294,508.516 199.343,503.971 185.163,496.394 C183.82,495.676 182.434,495.129 182.4,493.262 C182.323,488.936 180.898,484.856 179.733,480.138 C191.401,483.573 202.794,486.385 214.514,487.429 C221.799,488.078 229.105,488.628 236.412,488.838 C239.287,488.921 240.869,489.735 242.136,492.362 C245.484,499.3 249.819,505.593 255.595,510.794 C268.755,522.641 285.086,521.306 296.247,507.522 C302.427,499.89 306.264,491.06 309.263,481.854 C310.044,479.456 311.184,478.429 313.522,477.737 C333.25,471.902 351.986,463.835 368.944,452.049 C371.919,449.982 373.038,451.639 374.455,453.611 C383.731,466.521 379.795,486.01 365.811,494.214 C350.654,503.105 334.403,508.626 316.515,508.045 C314.729,507.507 314.217,505.731 313.115,504.531 C311.898,503.206 310.449,502.523 308.653,502.941 C306.641,503.409 305.58,504.842 305.181,506.775 C304.737,508.926 304.97,511.081 305.291,513.232 C308.361,533.81 311.512,554.376 314.442,574.975 C315.036,579.151 315.438,583.125 312.965,587.01 C311.449,589.392 311.949,592.331 314.717,593.371 C319.904,595.321 321.725,599.608 323.557,604.127 C324.366,606.121 325.022,608.226 326.405,609.937 C327.894,611.779 329.775,612.707 332.124,611.761 C334.254,610.903 334.985,609.099 334.934,606.926 C334.869,604.189 333.783,601.74 332.629,599.337 C330.993,595.932 330.139,592.572 331.546,588.769 C332.667,585.739 331.607,583.107 328.6,581.682 C325.982,580.441 325.141,578.219 324.761,575.673 C322.281,559.045 319.978,542.392 317.445,525.771 C317.194,524.126 317.115,522.425 318.51,521.11 C337.512,521.309 354.811,515.365 371.158,506.248 C374.274,504.51 375.076,504.818 375.867,508.403 C382.965,540.57 388.08,573.044 391.594,605.788 C393.741,625.79 395.264,645.833 396.182,665.924 C394.281,665.095 392.269,665.304 390.283,665.303 C315.772,665.3 241.26,665.3 166.749,665.302 C164.762,665.302 162.753,665.116 160.845,665.906" fill="#87C9D5"/>
      <path d="M492.523,21.092 C491.191,21.092 489.856,21.15 488.527,21.082 C483.262,20.813 478.989,16.762 478.537,11.659 C478.096,6.672 481.185,1.925 486.353,0.975 C508.836,-3.157 542.937,11.961 540.377,43.961 C539.251,58.035 532.138,69.149 520.543,77.126 C514.799,81.078 508.63,84.419 502.604,87.954 C495.514,92.114 489.926,97.482 486.943,105.411 C484.601,111.637 479.108,114.066 473.308,111.974 C468.183,110.126 465.643,104.269 467.776,98.201 C470.94,89.201 476.373,81.749 483.918,75.831 C490.245,70.869 497.429,67.33 504.298,63.266 C510.745,59.451 516.199,54.804 518.773,47.405 C521.479,39.624 519.782,33.016 513.449,27.697 C508.123,23.224 501.021,20.949 492.523,21.092" fill="#FF7164"/>
    </g>
    <path d="M456.356,137.817 C456.303,129.914 461.659,124.04 468.966,123.988 C475.871,123.939 480.808,129.175 480.876,136.618 C480.947,144.471 475.537,150.385 468.205,150.47 C461.364,150.549 456.407,145.256 456.356,137.817" fill="#FF7164"/>
    <path d="M417.593,353.093 C414.001,376.27 404.764,396.993 390.031,415.171 C368.445,441.804 339.559,456.822 307.245,465.919 C276.402,474.602 245.018,478.153 213.025,474.091 C197.265,472.091 182.154,467.868 167.732,461.127 C164.782,459.748 164.614,458.847 166.634,456.276 C173.953,446.962 178.372,436.594 176.614,424.401 C174.693,411.065 165.049,405.274 152.423,409.921 C143.797,413.096 137.033,419.026 130.542,425.273 C126.231,429.423 126.244,429.507 122.438,424.615 C118.362,419.376 114.206,414.183 111.332,408.131 C112.888,406.79 114.516,407.623 116.051,408.085 C120.232,409.343 124.498,409.593 128.838,409.866 C146.056,410.948 156.346,401.025 162.256,385.976 C166.043,376.331 164.573,367.076 158.865,358.404 C153.434,350.152 147.066,343.149 137.075,340.463 C119.512,335.74 104.346,347.515 97.921,361.506 C96.745,364.066 97.057,367.539 93.806,368.976 C85.882,345.296 83.382,321.026 85.541,296.175 C88.11,266.621 95.358,238.572 111.326,213.204 C123.114,194.478 138.386,179.206 157.194,166.666 C160.084,175.804 163.303,184.457 167.745,192.578 C177.104,209.688 188.549,225.101 204.551,236.627 C212.042,242.022 220.059,246.121 229.711,246.356 C239.696,246.6 246.985,242.17 252.448,234.323 C257.583,226.947 260.008,218.535 260.91,209.555 C263.089,209.629 263.996,211.43 265.336,212.517 C280.564,224.865 297.145,234.339 317.077,236.408 C332.946,238.056 344.093,229.03 346.134,213.188 C346.255,212.254 346.409,211.324 346.604,210.014 C353.919,214.641 361.063,218.807 368.945,221.548 C376.899,224.313 384.992,225.962 393.418,224.708 C395.244,224.436 396.183,224.817 396.985,226.379 C410.965,253.603 420.782,281.948 420.429,313.047 C418.515,313.347 417.845,311.769 417.024,310.629 C407.21,297 383.922,294.742 371.084,301.441 C354.798,309.941 348.411,332.178 357.493,348.022 C363.348,358.236 371.136,365.989 383.339,368.059 C393.453,369.775 401.892,366.421 409.473,359.893 C412.143,357.594 413.569,353.767 417.593,353.093" fill="#FEF8EA"/>
    <path d="M64.46,171.234 C71.185,166.022 79.506,164.624 87.207,161.758 C93.383,159.46 94.527,157.662 92.579,151.327 C91.977,149.367 92.833,148.556 93.893,147.527 C126.746,115.663 164.234,92.506 210.217,84.93 C223.884,82.679 237.632,81.159 251.392,81.385 C300.891,82.197 346.803,95.003 386.629,125.336 C420.184,150.893 440.888,184.832 448.203,226.473 C450.982,242.291 450.424,258.284 447.395,274.14 C446.707,277.742 445.388,279.924 441.296,279.151 C440.506,279.002 439.632,279.187 438.813,279.318 C430.717,280.608 430.736,280.609 428.845,272.787 C424.679,255.558 418.165,239.211 410.141,223.45 C408.846,220.906 408.046,218.988 410.435,216.384 C412.529,214.102 412.077,210.913 409.917,208.636 C407.681,206.278 404.694,205.293 401.81,207.409 C391.876,214.698 381.548,212.653 371.443,208.432 C356.442,202.167 343.235,193.431 334.97,178.771 C332.764,174.857 329.396,173.852 325.689,175.825 C321.695,177.95 321.544,181.718 323.593,185.327 C327.881,192.881 331.943,200.45 332.919,209.308 C333.846,217.715 329.873,222.627 321.343,223.291 C313.418,223.909 306.229,221.241 299.206,218.159 C284.021,211.494 270.537,202.651 261.69,188.03 C259.756,184.835 258.7,181.364 257.869,177.799 C256.875,173.53 254.336,171.449 249.944,172.184 C246.27,172.799 244.483,176.153 245.211,180.649 C246.751,190.174 248.38,199.683 247.677,209.409 C247.261,215.173 245.54,220.522 242.599,225.422 C238.02,233.053 231.713,235.188 223.403,232.081 C213.29,228.299 205.425,221.39 198.397,213.498 C184.355,197.73 173.78,180.031 169.068,159.206 C168.482,156.619 168.231,153.958 167.776,151.34 C167.227,148.179 165.449,146.25 162.144,145.986 C158.769,145.716 156.197,146.82 155.322,150.372 C154.842,152.322 153.589,153.42 151.974,154.458 C119.162,175.551 96.321,204.533 83.474,241.361 C77.306,259.042 73.93,277.282 72.5,295.941 C71.71,306.245 71.638,316.544 71.716,326.858 C69.563,328.067 68.348,326.204 66.973,325.269 C62.514,322.24 59.134,318.103 56.367,313.584 C48.404,300.584 43.717,286.696 45.789,271.159 C46.888,269.282 46.487,266.972 47.539,265.081 C47.699,262.338 49.526,260.619 51.408,259.006 C57.485,253.796 56.897,249.379 49.64,246.148 C45.427,243.499 40.753,241.537 37.003,238.211 C30.18,232.158 26.926,224.729 28.918,215.484 C31.846,201.889 39.861,191.45 49.731,182.225 C54.22,178.031 58.916,174.047 64.46,171.234" fill="#C9A76F"/>
    <path d="M417.593,353.093 C412.76,358.573 407.994,364.094 401.041,367.117 C385.693,373.792 370.56,368.057 360.842,355.512 C355.291,348.346 351.128,340.476 351.489,330.885 C352.093,314.857 366.576,298.911 382.44,297.02 C393.919,295.651 404.408,297.817 413.699,305.119 C416.55,307.359 418.043,310.534 420.429,313.047 C421.367,326.529 420.705,339.897 417.593,353.093" fill="#FFD9B4"/>
    <path d="M93.806,368.976 C96.566,358.911 101.773,350.409 110.288,344.247 C123.532,334.665 142.58,335.506 156.137,352.034 C171.899,371.25 166.339,398.959 143.917,408.826 C134.942,412.776 125.444,411.888 116.115,409.438 C114.516,409.018 112.926,408.567 111.332,408.131 C103.338,396.042 97.991,382.769 93.806,368.976" fill="#FFD9B4"/>
    <path d="M113.443,485.317 C114.64,469.246 122.567,453.109 135.172,439.16 C140.974,432.739 147.321,426.813 155.23,422.921 C161.217,419.974 163.474,421.103 163.858,427.807 C164.459,438.312 158.949,446.225 151.919,453.146 C144.998,459.958 145.027,462.552 152.965,468.18 C166.597,477.844 171.877,489.876 168.465,503.498 C165.212,516.48 153.092,524.138 139.925,521.532 C122.514,518.085 113.058,506.238 113.443,485.317" fill="#FEF8EA"/>
    <path d="M318.51,521.11 C320.364,534.409 322.206,547.709 324.08,561.005 C324.821,566.259 325.706,571.494 326.378,576.756 C326.609,578.572 327.061,579.518 329.067,580.221 C333.575,581.801 335.317,585.834 332.896,589.706 C331.349,592.179 331.82,593.963 332.732,596.122 C333.96,599.03 335.451,601.86 336.342,604.868 C337.434,608.555 336.817,611.988 332.643,613.437 C328.626,614.831 325.901,612.984 324.258,609.317 C322.969,606.439 321.675,603.555 320.562,600.606 C319.586,598.022 318.437,596.213 315.319,595.401 C310.7,594.199 308.805,589.536 311.666,586.11 C314.375,582.867 313.727,579.66 313.244,576.368 C310.117,555.037 306.848,533.727 303.631,512.41 C303.557,511.917 303.547,511.415 303.494,510.919 C303.053,506.787 302.844,502.665 307.941,501.172 C311.929,500.003 314.336,502.049 316.515,508.045 C316.665,512.479 317.322,516.835 318.51,521.11" fill="#FEFEFE"/>
    <path d="M230.538,508.044 C230.782,507.426 231.083,506.824 231.26,506.187 C232.306,502.421 234.757,500.445 238.639,501.117 C242.595,501.803 244.178,504.661 243.684,508.464 C242.571,517.03 241.292,525.575 240.059,534.125 C237.88,549.249 235.701,564.373 233.48,579.491 C233.155,581.706 233.422,583.405 234.98,585.365 C238.06,589.237 236.699,593.877 231.932,595.277 C228.696,596.226 227.41,598.088 226.396,600.872 C225.316,603.836 223.996,606.72 222.65,609.578 C221.033,613.012 218.359,614.729 214.559,613.506 C210.341,612.148 209.716,608.789 210.631,605.022 C211.097,603.102 212.009,601.277 212.826,599.457 C214.431,595.885 216.115,592.748 213.74,588.402 C211.913,585.059 213.79,581.474 217.859,580.199 C219.484,579.69 220.355,579.205 220.611,577.346 C223.194,558.592 225.884,539.853 228.543,521.11 C229.705,516.831 230.401,512.48 230.538,508.044" fill="#FEFEFE"/>
    <path d="M64.46,171.234 C60.446,175.928 54.876,178.774 50.507,183.077 C42.246,191.213 34.945,199.962 31.321,211.215 C27.058,224.451 30.982,234.052 43.295,240.886 C45.729,242.237 48.5,243.221 49.64,246.148 C41.948,246.592 34.374,246.24 27.079,243.332 C14.493,238.315 10.003,228.699 15.014,216.162 C21.591,199.705 34.121,188.449 48.66,179.184 C53.632,176.016 58.413,172.326 64.46,171.234" fill="#FEFEFE"/>
    <path d="M434.133,318.399 C433.707,311.763 433.425,305.113 432.778,298.498 C432.545,296.105 433.121,294.954 435.313,293.938 C443.683,290.054 449.486,292.145 452.862,300.691 C455.339,306.96 456.325,313.496 455.66,320.24 C454.659,330.387 445.877,337.719 435.672,337.153 C433.472,337.031 433.413,336.113 433.452,334.364 C433.573,329.047 433.496,323.726 433.496,318.407 C433.709,318.404 433.921,318.402 434.133,318.399" fill="#FEF8EA"/>
    <path d="M295.195,482.561 C291.875,490.564 288.807,497.334 282.925,502.351 C277.816,506.709 272.978,507.077 267.411,503.368 C261.905,499.699 258.112,494.546 254.891,488.299 C268.363,487.169 281.278,485.38 295.195,482.561" fill="#FEF8EA"/>
    <path d="M46.649,271.274 C45.824,288.188 50.162,303.536 60.583,317.017 C63.66,320.999 67.279,324.399 71.715,326.858 C72.409,329.006 73.653,331.499 71.612,333.196 C69.673,334.807 67.044,333.785 64.919,332.935 C59.339,330.704 54.989,326.778 51.93,321.717 C41.739,304.854 39.721,286.955 45.745,268.173 C47.986,268.642 46.835,270.099 46.649,271.274" fill="#FEFDFD"/>
    <path d="M88.575,393.064 C81.132,393.711 75.706,391.089 72.206,385.118 C67.587,377.236 66.57,368.558 67.729,359.63 C67.951,357.914 68.968,356.209 69.94,354.707 C71.054,352.984 72.953,351.487 74.87,351.817 C76.537,352.103 76.263,354.504 76.619,356.05 C79.514,368.627 83.448,380.88 88.575,393.064" fill="#FEF8EA"/>
    <path d="M46.649,271.274 C46.407,270.223 46.778,268.994 45.745,268.173 C45.933,266.904 46.169,265.664 47.539,265.081 C47.67,267.207 47.874,269.343 46.649,271.274" fill="#F2EFEC"/>
    <path d="M342.271,293.997 C342.309,302.645 336.524,309.747 328.767,310.574 C321.212,311.38 312.003,304.024 310.699,295.688 C309.541,288.29 311.344,281.434 316.254,275.67 C320.734,270.408 326.516,269.812 332.259,273.71 C338.009,277.613 342.237,286.18 342.271,293.997" fill="#6E4100"/>
    <path d="M195.373,316.045 C195.375,326.774 189.74,333.688 181.969,334.248 C173.577,334.852 164.9,327.497 163.795,318.374 C162.915,311.119 164.99,304.489 169.883,299.004 C174.116,294.258 179.843,293.62 185.146,297.229 C192.357,302.135 194.922,309.473 195.373,316.045" fill="#6E4100"/>
    <path d="M266.019,403.577 C273.152,403.904 279.767,405.159 285.776,408.692 C288.636,410.374 290.531,412.619 288.657,416.012 C286.82,419.339 283.998,419.135 280.969,417.58 C273.807,413.902 266.459,412.088 258.582,415.377 C255.991,416.459 253.928,415.305 252.75,413.075 C251.437,410.586 252.021,408.157 254.405,406.515 C257.973,404.057 262.154,403.836 266.019,403.577" fill="#6E4300"/>
    <path d="M141.106,219.201 C141.2,213.318 147.954,206.161 154.8,203.884 C161.049,201.806 168.416,203.804 171.989,208.491 C173.628,210.641 173.773,212.807 171.906,214.771 C170.189,216.579 168.154,216.508 166.028,215.234 C158.431,210.679 153.993,211.896 149.985,219.872 C148.769,222.292 147.282,223.625 144.591,223.121 C142.038,222.642 141.195,220.758 141.106,219.201" fill="#6E4300"/>
    <path d="M259.505,308.75 C259.182,311.308 257.386,312.975 254.338,313.026 C251.475,313.074 246.34,306.955 246.614,303.812 C246.881,300.755 248.639,299.011 251.823,299.061 C254.877,299.11 259.636,304.816 259.505,308.75" fill="#704401"/>
  </g>
</svg>
